<?xml version="1.0" encoding="UTF-8"?><!DOCTYPE svg PUBLIC "-//W3C//DTD SVG 1.1//EN" "http://www.w3.org/Graphics/SVG/1.1/DTD/svg11.dtd"><svg xmlns="http://www.w3.org/2000/svg" xmlns:xlink="http://www.w3.org/1999/xlink"><symbol id="icon--chest" viewBox="0 0 512 512"><path d="M437.019 74.981C388.668 26.629 324.38 0 256 0c-31.216 0-61.716 5.557-90.656 16.517l5.345 14.112c24.89-9.426 51.016-14.59 77.765-15.409v41.038c-49.433 1.844-94.328 21.719-128.291 53.232L91.151 80.48c17.908-16.911 38.516-31.207 61.34-42.084l-6.492-13.623c-43.052 20.517-79.488 52.6-105.369 92.781C14.05 158.821 0 206.695 0 256c0 68.38 26.628 132.668 74.981 181.019C123.333 485.371 187.62 512 256 512s132.668-26.629 181.019-74.981C485.372 388.667 512 324.38 512 256s-26.629-132.668-74.981-181.019zm59.76 173.473h-41.038c-1.807-48.424-20.911-92.498-51.313-126.204l29.016-29.016c37.798 41.175 61.487 95.493 63.335 155.22zM263.546 15.221c61.748 1.911 117.712 27.163 159.351 67.219l-28.985 28.985c-34.199-32.638-79.925-53.283-130.366-55.166V15.221zM80.503 91.175l28.988 28.987c-31.513 33.965-51.388 78.859-53.232 128.292h-41.04C17.1 189.265 41.024 133.409 80.503 91.175zM15.222 263.546h41.037c1.882 50.441 22.528 96.167 55.166 130.366L82.44 422.897c-40.056-41.639-65.308-97.605-67.218-159.351zM248.454 496.78c-59.727-1.847-114.044-25.536-155.218-63.336l29.015-29.016c33.706 30.402 77.78 49.507 126.204 51.313v41.039zm15.092-.002V455.75c20.242-.751 40.086-4.513 59.086-11.229l-5.029-14.229c-19.738 6.977-40.464 10.515-61.603 10.515-101.903 0-184.806-82.904-184.806-184.806S154.097 71.194 256 71.194 440.806 154.097 440.806 256c0 69.444-38.359 132.4-100.108 164.299l6.927 13.408a201.338 201.338 0 0044.341-31.07l28.873 28.873c-41.416 38.921-96.557 63.39-157.293 65.268zm167.965-75.939l-28.859-28.858c32.103-34.548 51.296-79.811 53.101-128.436h41.025c-1.877 60.738-26.346 115.878-65.267 157.294z"/><path d="M247.991 96.172h16.029v15.091h-16.029zM247.991 400.735h16.029v15.091h-16.029zM95.709 248.453h16.03v15.091h-16.03zM135.782 136.254h16.029v15.091h-16.029zM368.208 144.263h16.029v15.091h-16.029zM368.208 352.644h16.029v15.091h-16.029zM127.763 352.644h16.03v15.091h-16.03zM400.262 248.453h16.029v15.091h-16.029zM184.337 263.546h48.088v21.387l-11.609 11.609h-36.947v15.092h43.198l20.45-20.45v-42.73h-48.088v-32.996h48.556v-15.092h-63.648zM272.498 311.634h63.179V200.366h-63.179v111.268zm15.091-96.176h32.997v81.085h-32.997v-81.085z"/></symbol></svg>