<?xml version="1.0" encoding="iso-8859-1"?>
<!-- Generator: Adobe Illustrator 19.0.0, SVG Export Plug-In . SVG Version: 6.00 Build 0)  -->
<svg version="1.1" id="Capa_1" xmlns="http://www.w3.org/2000/svg" xmlns:xlink="http://www.w3.org/1999/xlink" x="0px" y="0px"
	 viewBox="0 0 512 512" style="enable-background:new 0 0 512 512;" fill="#ffffff" xml:space="preserve">
<g>
	<g>
		<g>
			<path d="M437.019,74.981C388.668,26.629,324.38,0,256,0c-31.216,0-61.716,5.557-90.656,16.517l5.345,14.112
				c24.89-9.426,51.016-14.59,77.765-15.409v41.038c-49.433,1.844-94.328,21.719-128.291,53.232l-29.012-29.01
				c17.908-16.911,38.516-31.207,61.34-42.084l-6.492-13.623c-43.052,20.517-79.488,52.6-105.369,92.781
				C14.05,158.821,0,206.695,0,256c0,68.38,26.628,132.668,74.981,181.019C123.333,485.371,187.62,512,256,512
				s132.668-26.629,181.019-74.981C485.372,388.667,512,324.38,512,256S485.371,123.332,437.019,74.981z M496.779,248.454h-41.038
				c-1.807-48.424-20.911-92.498-51.313-126.204l29.016-29.016C471.242,134.409,494.931,188.727,496.779,248.454z M263.546,15.221
				c61.748,1.911,117.712,27.163,159.351,67.219l-28.985,28.985c-34.199-32.638-79.925-53.283-130.366-55.166V15.221z
				 M80.503,91.175l28.988,28.987c-31.513,33.965-51.388,78.859-53.232,128.292h-41.04C17.1,189.265,41.024,133.409,80.503,91.175z
				 M15.222,263.546h41.037c1.882,50.441,22.528,96.167,55.166,130.366L82.44,422.897C42.384,381.258,17.132,325.292,15.222,263.546
				z M248.454,496.78c-59.727-1.847-114.044-25.536-155.218-63.336l29.015-29.016c33.706,30.402,77.78,49.507,126.204,51.313V496.78
				z M263.546,496.778V455.75h0c20.242-0.751,40.086-4.513,59.086-11.229l-5.029-14.229c-19.738,6.977-40.464,10.515-61.603,10.515
				c-101.903,0-184.806-82.904-184.806-184.806S154.097,71.194,256,71.194S440.806,154.097,440.806,256
				c0,69.444-38.359,132.4-100.108,164.299l6.927,13.408c16.384-8.464,31.242-18.955,44.341-31.07l28.873,28.873
				C379.423,470.431,324.282,494.9,263.546,496.778z M431.511,420.839l-28.859-28.858c32.103-34.548,51.296-79.811,53.101-128.436
				h41.025C494.901,324.283,470.432,379.423,431.511,420.839z"/>
			<rect x="247.991" y="96.172" width="16.029" height="15.091"/>
			<rect x="247.991" y="400.735" width="16.029" height="15.091"/>
			<rect x="95.709" y="248.453" width="16.03" height="15.091"/>
			<rect x="135.782" y="136.254" width="16.029" height="15.091"/>
			<rect x="368.208" y="144.263" width="16.029" height="15.091"/>
			<rect x="368.208" y="352.644" width="16.029" height="15.091"/>
			<rect x="127.763" y="352.644" width="16.03" height="15.091"/>
			<rect x="400.262" y="248.453" width="16.029" height="15.091"/>
			<polygon points="184.337,263.546 232.425,263.546 232.425,284.933 220.816,296.542 183.869,296.542 183.869,311.634 
				227.067,311.634 247.517,291.184 247.517,248.454 199.429,248.454 199.429,215.458 247.985,215.458 247.985,200.366 
				184.337,200.366 			"/>
			<path d="M272.498,311.634h63.179V200.366h-63.179V311.634z M287.589,215.458h32.997v81.085h-32.997V215.458z"/>
		</g>
	</g>
</g>
<g>
</g>
<g>
</g>
<g>
</g>
<g>
</g>
<g>
</g>
<g>
</g>
<g>
</g>
<g>
</g>
<g>
</g>
<g>
</g>
<g>
</g>
<g>
</g>
<g>
</g>
<g>
</g>
<g>
</g>
</svg>
