<svg width="144" height="17" viewBox="0 0 144 17" fill="none" xmlns="http://www.w3.org/2000/svg">
<path d="M7.596 13.198C6.336 13.198 5.202 12.988 4.194 12.568C3.198 12.136 2.406 11.494 1.818 10.642C1.242 9.79 0.954 8.728 0.954 7.456C0.954 6.376 1.152 5.464 1.548 4.72C1.944 3.976 2.466 3.376 3.114 2.92C3.774 2.464 4.494 2.134 5.274 1.93C6.054 1.726 6.834 1.624 7.614 1.624C10.146 1.624 11.88 2.332 12.816 3.748L11.412 5.206L11.286 5.332L11.178 5.224C11.178 5.128 11.154 5.044 11.106 4.972C11.07 4.888 10.986 4.774 10.854 4.63C10.446 4.318 9.972 4.102 9.432 3.982C8.892 3.85 8.31 3.784 7.686 3.784C6.966 3.784 6.294 3.916 5.67 4.18C5.058 4.444 4.56 4.84 4.176 5.368C3.792 5.896 3.6 6.562 3.6 7.366C3.6 8.554 3.972 9.46 4.716 10.084C5.46 10.708 6.426 11.02 7.614 11.02C8.274 11.02 8.922 10.936 9.558 10.768C10.206 10.588 10.722 10.276 11.106 9.832L12.618 11.398C12.018 12.07 11.31 12.538 10.494 12.802C9.69 13.066 8.724 13.198 7.596 13.198ZM69.156 13V1.768H79.83V3.856H71.64V5.908H78.336V7.996H71.64V13H69.156Z" fill="#33AF71"/>
<path d="M17.316 16.15C16.68 16.15 16.104 16.072 15.588 15.916C15.084 15.76 14.622 15.532 14.202 15.232L15.228 13.342L15.3 13.18L15.444 13.252C15.48 13.348 15.522 13.432 15.57 13.504C15.63 13.588 15.744 13.684 15.912 13.792C16.296 13.984 16.794 14.086 17.406 14.098C17.934 14.086 18.354 13.972 18.666 13.756C18.99 13.552 19.29 13.222 19.566 12.766L14.454 4.522H17.568L20.916 10.156L22.194 7.672C22.458 7.156 22.698 6.634 22.914 6.106C23.13 5.566 23.268 5.038 23.328 4.522H25.956C25.86 5.074 25.662 5.668 25.362 6.304C25.074 6.928 24.78 7.516 24.48 8.068L21.384 13.756C20.916 14.644 20.352 15.262 19.692 15.61C19.032 15.97 18.24 16.15 17.316 16.15ZM34.398 13.198C33.498 13.198 32.73 13.096 32.094 12.892C31.47 12.688 30.972 12.394 30.6 12.01L29.844 13H28.08V0.94H30.924V1.102C30.852 1.174 30.804 1.252 30.78 1.336C30.768 1.42 30.762 1.564 30.762 1.768V5.548C31.146 5.14 31.686 4.834 32.382 4.63C33.078 4.426 33.786 4.324 34.506 4.324C35.514 4.324 36.432 4.498 37.26 4.846C38.088 5.182 38.748 5.674 39.24 6.322C39.732 6.97 39.978 7.762 39.978 8.698C39.978 9.718 39.72 10.564 39.204 11.236C38.7 11.896 38.022 12.388 37.17 12.712C36.33 13.036 35.406 13.198 34.398 13.198ZM33.948 11.164C34.548 11.164 35.1 11.098 35.604 10.966C36.12 10.822 36.534 10.582 36.846 10.246C37.158 9.898 37.314 9.424 37.314 8.824C37.314 8.008 37.014 7.396 36.414 6.988C35.814 6.568 35.01 6.358 34.002 6.358C33.078 6.358 32.31 6.556 31.698 6.952C31.086 7.336 30.78 7.93 30.78 8.734C30.768 9.55 31.014 10.162 31.518 10.57C32.034 10.966 32.844 11.164 33.948 11.164ZM47.862 13.198C46.65 13.198 45.558 13.03 44.586 12.694C43.614 12.358 42.84 11.866 42.264 11.218C41.7 10.57 41.418 9.79 41.418 8.878C41.418 7.942 41.676 7.138 42.192 6.466C42.708 5.782 43.422 5.254 44.334 4.882C45.258 4.51 46.32 4.324 47.52 4.324C48.624 4.324 49.59 4.51 50.418 4.882C51.246 5.254 51.888 5.776 52.344 6.448C52.8 7.108 53.028 7.882 53.028 8.77C53.028 9.07 53.01 9.346 52.974 9.598H43.92C44.04 10.126 44.46 10.522 45.18 10.786C45.9 11.038 46.824 11.164 47.952 11.164C48.348 11.164 48.762 11.146 49.194 11.11C49.626 11.074 50.028 11.014 50.4 10.93C50.772 10.834 51.066 10.702 51.282 10.534L52.632 11.848C52.104 12.304 51.408 12.646 50.544 12.874C49.68 13.09 48.786 13.198 47.862 13.198ZM43.92 7.708H50.562C50.478 7.252 50.142 6.91 49.554 6.682C48.966 6.454 48.24 6.34 47.376 6.34C45.384 6.34 44.232 6.796 43.92 7.708ZM56.286 4.522H59.022L58.986 5.944C59.226 5.632 59.55 5.356 59.958 5.116C60.366 4.864 60.822 4.672 61.326 4.54C61.83 4.396 62.346 4.324 62.874 4.324C63.678 4.324 64.386 4.426 64.998 4.63C65.61 4.834 66.12 5.116 66.528 5.476L65.286 7.402L65.196 7.546L65.07 7.456C65.034 7.372 64.992 7.288 64.944 7.204C64.896 7.12 64.794 7.018 64.638 6.898C64.014 6.562 63.288 6.394 62.46 6.394C61.872 6.394 61.308 6.472 60.768 6.628C60.24 6.784 59.808 7.042 59.472 7.402C59.136 7.75 58.968 8.224 58.968 8.824V13H56.286V4.522ZM83.25 13V10.894H86.58V6.628H83.394V4.522H89.244V10.894H92.322V13H83.25ZM87.786 3.406C87.354 3.406 86.988 3.262 86.688 2.974C86.4 2.674 86.256 2.32 86.256 1.912C86.256 1.48 86.4 1.12 86.688 0.831999C86.976 0.543999 87.342 0.399999 87.786 0.399999C88.194 0.399999 88.554 0.549999 88.866 0.85C89.178 1.15 89.334 1.504 89.334 1.912C89.334 2.32 89.178 2.674 88.866 2.974C88.554 3.262 88.194 3.406 87.786 3.406Z" fill="#F2F2F2"/>
<path d="M108.708 13V5.524H112.08C113.048 5.524 113.816 5.604 114.384 5.764C114.96 5.924 115.372 6.144 115.62 6.424C115.868 6.704 115.992 7.028 115.992 7.396C115.992 7.74 115.884 8.072 115.668 8.392C115.452 8.712 115.12 8.924 114.672 9.028C115.208 9.172 115.636 9.404 115.956 9.724C116.276 10.036 116.436 10.412 116.436 10.852C116.436 11.324 116.292 11.72 116.004 12.04C115.716 12.352 115.252 12.592 114.612 12.76C113.972 12.92 113.124 13 112.068 13H108.708ZM110.472 8.44H111.912C112.76 8.44 113.352 8.372 113.688 8.236C114.032 8.1 114.204 7.888 114.204 7.6C114.204 7.112 113.504 6.864 112.104 6.856H110.472V8.44ZM110.472 11.644H112.272C113.032 11.644 113.612 11.572 114.012 11.428C114.42 11.276 114.624 11.068 114.624 10.804C114.624 10.116 113.74 9.772 111.972 9.772H110.472V11.644ZM121.908 13.132C121.1 13.132 120.372 13.02 119.724 12.796C119.076 12.572 118.56 12.244 118.176 11.812C117.8 11.38 117.612 10.86 117.612 10.252C117.612 9.628 117.784 9.092 118.128 8.644C118.472 8.188 118.948 7.836 119.556 7.588C120.172 7.34 120.88 7.216 121.68 7.216C122.416 7.216 123.06 7.34 123.612 7.588C124.164 7.836 124.592 8.184 124.896 8.632C125.2 9.072 125.352 9.588 125.352 10.18C125.352 10.38 125.34 10.564 125.316 10.732H119.28C119.36 11.084 119.64 11.348 120.12 11.524C120.6 11.692 121.216 11.776 121.968 11.776C122.232 11.776 122.508 11.764 122.796 11.74C123.084 11.716 123.352 11.676 123.6 11.62C123.848 11.556 124.044 11.468 124.188 11.356L125.088 12.232C124.736 12.536 124.272 12.764 123.696 12.916C123.12 13.06 122.524 13.132 121.908 13.132ZM119.28 9.472H123.708C123.652 9.168 123.428 8.94 123.036 8.788C122.644 8.636 122.16 8.56 121.584 8.56C120.256 8.56 119.488 8.864 119.28 9.472ZM131.28 13.144C130.608 13.144 130.068 13.048 129.66 12.856C129.252 12.656 128.96 12.332 128.784 11.884C128.616 11.436 128.556 10.84 128.604 10.096L128.676 8.668H127.092L127.104 7.348H128.76L128.832 6.1L130.656 5.932L130.776 5.92V6.028C130.736 6.084 130.7 6.14 130.668 6.196C130.636 6.252 130.616 6.344 130.608 6.472L130.5 7.348H133.2L133.188 8.668H130.452L130.356 10.084C130.316 10.732 130.396 11.184 130.596 11.44C130.804 11.688 131.14 11.812 131.604 11.812C131.988 11.812 132.348 11.76 132.684 11.656C133.02 11.552 133.34 11.42 133.644 11.26L133.98 12.496C133.564 12.696 133.136 12.856 132.696 12.976C132.256 13.088 131.784 13.144 131.28 13.144ZM138.684 13.132C137.716 13.132 136.972 12.996 136.452 12.724C135.932 12.444 135.672 12.036 135.672 11.5C135.672 11.092 135.824 10.732 136.128 10.42C136.432 10.108 136.916 9.864 137.58 9.688C138.252 9.504 139.128 9.412 140.208 9.412C140.352 9.412 140.524 9.42 140.724 9.436C140.932 9.444 141.14 9.456 141.348 9.472C141.244 9.088 141.032 8.836 140.712 8.716C140.4 8.596 139.988 8.536 139.476 8.536C138.94 8.536 138.48 8.58 138.096 8.668C137.712 8.756 137.36 8.908 137.04 9.124L136.068 8.128C136.5 7.832 136.996 7.608 137.556 7.456C138.124 7.296 138.776 7.216 139.512 7.216C140.024 7.216 140.5 7.256 140.94 7.336C141.388 7.408 141.776 7.54 142.104 7.732C142.44 7.924 142.7 8.192 142.884 8.536C143.068 8.872 143.16 9.304 143.16 9.832V13H141.384V12.472C141.032 12.696 140.616 12.864 140.136 12.976C139.664 13.08 139.18 13.132 138.684 13.132ZM137.388 11.332C137.388 11.492 137.508 11.612 137.748 11.692C137.988 11.772 138.392 11.812 138.96 11.812C139.64 11.812 140.184 11.732 140.592 11.572C141 11.404 141.256 11.1 141.36 10.66C141.168 10.652 140.972 10.648 140.772 10.648C140.572 10.648 140.396 10.648 140.244 10.648C139.5 10.648 138.92 10.684 138.504 10.756C138.088 10.82 137.796 10.904 137.628 11.008C137.468 11.112 137.388 11.22 137.388 11.332Z" fill="#F2F2F2" fill-opacity="0.5"/>
</svg>
