<svg viewBox="0 0 11 12" fill="none" xmlns="http://www.w3.org/2000/svg">
<path d="M8.69141 3.70261C8.4992 3.49437 8.25892 3.25409 7.9706 3.09392L7.95459 3.07792C7.79443 2.99784 7.61823 3.01384 7.47406 3.10996C7.3139 3.20608 7.10566 3.35024 7.28186 5.65683V5.67283C7.29786 5.80099 7.28186 5.88107 7.28186 5.91311V5.92911C7.16974 6.44168 6.72122 6.698 6.35281 6.76204C6.17661 6.79408 5.58393 6.84213 5.24756 6.28152C5.03932 5.92911 5.02332 5.51263 5.18348 5.12822C5.21552 5.04814 5.26357 4.96803 5.2956 4.90398C5.37569 4.72778 5.4558 4.55158 5.56792 4.39141C6.33681 3.12599 6.20865 1.60426 5.23156 0.21069C5.15147 0.098568 5.02332 0.0184849 4.87916 0.00244995C4.73499 -0.0135544 4.59083 0.0504936 4.49471 0.146612C4.11027 0.547057 3.74187 0.979542 3.38946 1.38002C2.95698 1.87658 2.50846 2.37315 2.04393 2.85368C1.30709 3.60652 0.346003 4.75982 0.073715 6.21747C-0.102486 7.19456 0.0416757 8.21973 0.458156 9.11674C1.22704 10.7506 2.97298 11.9199 4.78304 12C4.86312 12 4.9272 12 5.00728 12C6.75326 12 8.45119 11.0229 9.30012 9.51718C10.4374 7.56297 10.1811 5.22431 8.69141 3.70261ZM8.4832 9.05266C7.77839 10.3181 6.30474 11.119 4.84708 11.0549C3.37343 10.9748 1.96382 10.0297 1.33913 8.70026C1.00276 7.97945 0.890611 7.16252 1.01877 6.37763C1.19497 5.46459 1.72357 4.55158 2.70066 3.52641C3.18119 3.04588 3.62971 2.51728 4.07823 2.02071C4.28647 1.78043 4.51072 1.52415 4.73496 1.28387C5.05533 1.9246 5.32764 2.90169 4.73496 3.87881C4.60681 4.08705 4.51072 4.27926 4.4146 4.4875C4.38256 4.56758 4.35052 4.63166 4.30248 4.71174C4.30248 4.71174 4.30248 4.72775 4.28647 4.72775C3.99815 5.38448 4.03019 6.15336 4.3986 6.76204C4.83108 7.48285 5.632 7.85129 6.49697 7.7071C7.36194 7.56294 8.03471 6.93821 8.1949 6.13732C8.24295 5.97716 8.24295 5.78492 8.22694 5.57668C8.1949 5.22428 8.1949 4.87188 8.1789 4.56755C9.20401 5.76895 9.33213 7.54693 8.4832 9.05266Z" fill="url(#paint0_linear)"/>
<defs>
<linearGradient id="paint0_linear" x1="0.132331" y1="0.231056" x2="9.24511" y2="13.0577" gradientUnits="userSpaceOnUse">
<stop stop-color="#B12E2A"/>
<stop offset="1" stop-color="#F47C45"/>
</linearGradient>
</defs>
</svg>
